<mxfile host="app.diagrams.net" modified="2024-02-18T22:39:36.446Z" agent="Mozilla/5.0 (Windows NT 10.0; Win64; x64) AppleWebKit/537.36 (KHTML, like Gecko) Chrome/121.0.0.0 Safari/537.36" etag="hy3J828NzCX1Oz6iepea" version="23.1.5" type="github">
  <diagram name="Сторінка-1" id="GY0zhfRXF6k9F3iXDni4">
    <mxGraphModel dx="1615" dy="869" grid="1" gridSize="10" guides="1" tooltips="1" connect="1" arrows="1" fold="1" page="1" pageScale="1" pageWidth="827" pageHeight="1169" math="0" shadow="0">
      <root>
        <mxCell id="0" />
        <mxCell id="1" parent="0" />
        <mxCell id="fGFiafbUmP5YM8zGQx3c-1" value="Employee" style="shape=umlActor;verticalLabelPosition=bottom;verticalAlign=top;html=1;outlineConnect=0;" vertex="1" parent="1">
          <mxGeometry x="120" y="730" width="30" height="60" as="geometry" />
        </mxCell>
        <mxCell id="fGFiafbUmP5YM8zGQx3c-2" value="Manager" style="shape=umlActor;verticalLabelPosition=bottom;verticalAlign=top;html=1;outlineConnect=0;" vertex="1" parent="1">
          <mxGeometry x="120" y="560" width="30" height="60" as="geometry" />
        </mxCell>
        <mxCell id="fGFiafbUmP5YM8zGQx3c-3" value="Director" style="shape=umlActor;verticalLabelPosition=bottom;verticalAlign=top;html=1;outlineConnect=0;" vertex="1" parent="1">
          <mxGeometry x="110" y="450" width="30" height="60" as="geometry" />
        </mxCell>
        <mxCell id="fGFiafbUmP5YM8zGQx3c-4" value="Створити (додати) новий проєкт" style="ellipse;whiteSpace=wrap;html=1;" vertex="1" parent="1">
          <mxGeometry x="250" y="370" width="140" height="70" as="geometry" />
        </mxCell>
        <mxCell id="fGFiafbUmP5YM8zGQx3c-5" value="Увійти до системи" style="ellipse;whiteSpace=wrap;html=1;" vertex="1" parent="1">
          <mxGeometry x="414" y="430" width="140" height="70" as="geometry" />
        </mxCell>
        <mxCell id="fGFiafbUmP5YM8zGQx3c-6" value="Include" style="html=1;verticalAlign=bottom;endArrow=open;dashed=1;endSize=8;curved=0;rounded=0;exitX=1;exitY=0.5;exitDx=0;exitDy=0;entryX=0.5;entryY=0;entryDx=0;entryDy=0;" edge="1" parent="1" source="fGFiafbUmP5YM8zGQx3c-4" target="fGFiafbUmP5YM8zGQx3c-5">
          <mxGeometry relative="1" as="geometry">
            <mxPoint x="300" y="550" as="sourcePoint" />
            <mxPoint x="220" y="550" as="targetPoint" />
          </mxGeometry>
        </mxCell>
        <mxCell id="fGFiafbUmP5YM8zGQx3c-7" value="Додати завдання" style="ellipse;whiteSpace=wrap;html=1;" vertex="1" parent="1">
          <mxGeometry x="250" y="500" width="140" height="70" as="geometry" />
        </mxCell>
        <mxCell id="fGFiafbUmP5YM8zGQx3c-8" value="Показати завдання представника" style="ellipse;whiteSpace=wrap;html=1;" vertex="1" parent="1">
          <mxGeometry x="230" y="800" width="140" height="70" as="geometry" />
        </mxCell>
        <mxCell id="fGFiafbUmP5YM8zGQx3c-9" value="Взяти open for grab завдання" style="ellipse;whiteSpace=wrap;html=1;" vertex="1" parent="1">
          <mxGeometry x="430" y="780" width="140" height="70" as="geometry" />
        </mxCell>
        <mxCell id="fGFiafbUmP5YM8zGQx3c-10" value="Створити загальний звіт" style="ellipse;whiteSpace=wrap;html=1;" vertex="1" parent="1">
          <mxGeometry x="530" y="220" width="140" height="70" as="geometry" />
        </mxCell>
        <mxCell id="fGFiafbUmP5YM8zGQx3c-11" value="Extends" style="endArrow=block;endSize=16;endFill=0;html=1;rounded=0;entryX=1;entryY=0.5;entryDx=0;entryDy=0;exitX=0;exitY=0.5;exitDx=0;exitDy=0;" edge="1" parent="1" source="fGFiafbUmP5YM8zGQx3c-9" target="fGFiafbUmP5YM8zGQx3c-8">
          <mxGeometry width="160" relative="1" as="geometry">
            <mxPoint x="310" y="580" as="sourcePoint" />
            <mxPoint x="470" y="580" as="targetPoint" />
          </mxGeometry>
        </mxCell>
        <mxCell id="fGFiafbUmP5YM8zGQx3c-12" value="Внести зміни до профлію" style="ellipse;whiteSpace=wrap;html=1;" vertex="1" parent="1">
          <mxGeometry x="180" y="680" width="140" height="70" as="geometry" />
        </mxCell>
        <mxCell id="fGFiafbUmP5YM8zGQx3c-13" value="Include" style="html=1;verticalAlign=bottom;endArrow=open;dashed=1;endSize=8;curved=0;rounded=0;exitX=1;exitY=0.5;exitDx=0;exitDy=0;entryX=0.5;entryY=1;entryDx=0;entryDy=0;" edge="1" parent="1" source="fGFiafbUmP5YM8zGQx3c-7" target="fGFiafbUmP5YM8zGQx3c-5">
          <mxGeometry relative="1" as="geometry">
            <mxPoint x="330" y="584" as="sourcePoint" />
            <mxPoint x="466" y="612" as="targetPoint" />
          </mxGeometry>
        </mxCell>
        <mxCell id="fGFiafbUmP5YM8zGQx3c-14" value="Підтвердити зміни" style="ellipse;whiteSpace=wrap;html=1;" vertex="1" parent="1">
          <mxGeometry x="400" y="680" width="140" height="70" as="geometry" />
        </mxCell>
        <mxCell id="fGFiafbUmP5YM8zGQx3c-15" value="Представити поточні проєкти" style="ellipse;whiteSpace=wrap;html=1;" vertex="1" parent="1">
          <mxGeometry x="580" y="390" width="140" height="70" as="geometry" />
        </mxCell>
        <mxCell id="fGFiafbUmP5YM8zGQx3c-18" value="" style="endArrow=open;endFill=1;endSize=12;html=1;rounded=0;entryX=0;entryY=0.5;entryDx=0;entryDy=0;" edge="1" parent="1" source="fGFiafbUmP5YM8zGQx3c-3" target="fGFiafbUmP5YM8zGQx3c-4">
          <mxGeometry width="160" relative="1" as="geometry">
            <mxPoint x="280" y="600" as="sourcePoint" />
            <mxPoint x="440" y="600" as="targetPoint" />
          </mxGeometry>
        </mxCell>
        <mxCell id="fGFiafbUmP5YM8zGQx3c-19" value="" style="endArrow=open;endFill=1;endSize=12;html=1;rounded=0;entryX=0;entryY=0.5;entryDx=0;entryDy=0;" edge="1" parent="1" source="fGFiafbUmP5YM8zGQx3c-3" target="fGFiafbUmP5YM8zGQx3c-7">
          <mxGeometry width="160" relative="1" as="geometry">
            <mxPoint x="310" y="600" as="sourcePoint" />
            <mxPoint x="470" y="600" as="targetPoint" />
          </mxGeometry>
        </mxCell>
        <mxCell id="fGFiafbUmP5YM8zGQx3c-20" value="" style="endArrow=open;endFill=1;endSize=12;html=1;rounded=0;entryX=0;entryY=1;entryDx=0;entryDy=0;" edge="1" parent="1" source="fGFiafbUmP5YM8zGQx3c-2" target="fGFiafbUmP5YM8zGQx3c-4">
          <mxGeometry width="160" relative="1" as="geometry">
            <mxPoint x="310" y="600" as="sourcePoint" />
            <mxPoint x="470" y="600" as="targetPoint" />
          </mxGeometry>
        </mxCell>
        <mxCell id="fGFiafbUmP5YM8zGQx3c-21" value="" style="endArrow=open;endFill=1;endSize=12;html=1;rounded=0;entryX=0;entryY=1;entryDx=0;entryDy=0;" edge="1" parent="1" target="fGFiafbUmP5YM8zGQx3c-7">
          <mxGeometry width="160" relative="1" as="geometry">
            <mxPoint x="170" y="600" as="sourcePoint" />
            <mxPoint x="210" y="580" as="targetPoint" />
          </mxGeometry>
        </mxCell>
        <mxCell id="fGFiafbUmP5YM8zGQx3c-22" value="Призначити відповідального за проєкт" style="ellipse;whiteSpace=wrap;html=1;" vertex="1" parent="1">
          <mxGeometry x="370" y="270" width="140" height="70" as="geometry" />
        </mxCell>
        <mxCell id="fGFiafbUmP5YM8zGQx3c-24" value="Include" style="html=1;verticalAlign=bottom;endArrow=open;dashed=1;endSize=8;curved=0;rounded=0;exitX=0.5;exitY=0;exitDx=0;exitDy=0;entryX=0;entryY=1;entryDx=0;entryDy=0;" edge="1" parent="1" source="fGFiafbUmP5YM8zGQx3c-4" target="fGFiafbUmP5YM8zGQx3c-22">
          <mxGeometry relative="1" as="geometry">
            <mxPoint x="284" y="410" as="sourcePoint" />
            <mxPoint x="414" y="425" as="targetPoint" />
          </mxGeometry>
        </mxCell>
        <mxCell id="fGFiafbUmP5YM8zGQx3c-25" value="Увійти до системи як працівник" style="ellipse;whiteSpace=wrap;html=1;" vertex="1" parent="1">
          <mxGeometry x="230" y="920" width="140" height="70" as="geometry" />
        </mxCell>
        <mxCell id="fGFiafbUmP5YM8zGQx3c-27" value="Include" style="html=1;verticalAlign=bottom;endArrow=open;dashed=1;endSize=8;curved=0;rounded=0;entryX=0.5;entryY=0;entryDx=0;entryDy=0;" edge="1" parent="1" source="fGFiafbUmP5YM8zGQx3c-8" target="fGFiafbUmP5YM8zGQx3c-25">
          <mxGeometry relative="1" as="geometry">
            <mxPoint x="320" y="920" as="sourcePoint" />
            <mxPoint x="310" y="910" as="targetPoint" />
          </mxGeometry>
        </mxCell>
        <mxCell id="fGFiafbUmP5YM8zGQx3c-28" value="" style="endArrow=open;endFill=1;endSize=12;html=1;rounded=0;entryX=0;entryY=0;entryDx=0;entryDy=0;" edge="1" parent="1" target="fGFiafbUmP5YM8zGQx3c-14">
          <mxGeometry width="160" relative="1" as="geometry">
            <mxPoint x="170" y="620" as="sourcePoint" />
            <mxPoint x="410" y="610" as="targetPoint" />
          </mxGeometry>
        </mxCell>
        <mxCell id="fGFiafbUmP5YM8zGQx3c-29" value="" style="endArrow=open;endFill=1;endSize=12;html=1;rounded=0;entryX=0;entryY=0;entryDx=0;entryDy=0;" edge="1" parent="1" target="fGFiafbUmP5YM8zGQx3c-12">
          <mxGeometry width="160" relative="1" as="geometry">
            <mxPoint x="170" y="630" as="sourcePoint" />
            <mxPoint x="420" y="675" as="targetPoint" />
          </mxGeometry>
        </mxCell>
        <mxCell id="fGFiafbUmP5YM8zGQx3c-30" value="" style="endArrow=open;endFill=1;endSize=12;html=1;rounded=0;entryX=-0.015;entryY=0.401;entryDx=0;entryDy=0;entryPerimeter=0;" edge="1" parent="1" target="fGFiafbUmP5YM8zGQx3c-8">
          <mxGeometry width="160" relative="1" as="geometry">
            <mxPoint x="160" y="780" as="sourcePoint" />
            <mxPoint x="400" y="770" as="targetPoint" />
          </mxGeometry>
        </mxCell>
        <mxCell id="fGFiafbUmP5YM8zGQx3c-31" value="Include" style="html=1;verticalAlign=bottom;endArrow=open;dashed=1;endSize=8;curved=0;rounded=0;entryX=0;entryY=0.5;entryDx=0;entryDy=0;exitX=1;exitY=0.5;exitDx=0;exitDy=0;" edge="1" parent="1" source="fGFiafbUmP5YM8zGQx3c-12" target="fGFiafbUmP5YM8zGQx3c-14">
          <mxGeometry relative="1" as="geometry">
            <mxPoint x="308" y="880" as="sourcePoint" />
            <mxPoint x="317" y="923" as="targetPoint" />
          </mxGeometry>
        </mxCell>
        <mxCell id="fGFiafbUmP5YM8zGQx3c-32" value="" style="endArrow=open;endFill=1;endSize=12;html=1;rounded=0;entryX=0;entryY=1;entryDx=0;entryDy=0;" edge="1" parent="1" target="fGFiafbUmP5YM8zGQx3c-12">
          <mxGeometry width="160" relative="1" as="geometry">
            <mxPoint x="170" y="760" as="sourcePoint" />
            <mxPoint x="470" y="760" as="targetPoint" />
          </mxGeometry>
        </mxCell>
        <mxCell id="fGFiafbUmP5YM8zGQx3c-33" value="Призначити виконавця/ів" style="ellipse;whiteSpace=wrap;html=1;" vertex="1" parent="1">
          <mxGeometry x="450" y="515" width="140" height="70" as="geometry" />
        </mxCell>
        <mxCell id="fGFiafbUmP5YM8zGQx3c-34" value="Extends" style="endArrow=block;endSize=16;endFill=0;html=1;rounded=0;entryX=1;entryY=1;entryDx=0;entryDy=0;exitX=0;exitY=0;exitDx=0;exitDy=0;" edge="1" parent="1" source="fGFiafbUmP5YM8zGQx3c-35" target="fGFiafbUmP5YM8zGQx3c-8">
          <mxGeometry width="160" relative="1" as="geometry">
            <mxPoint x="440" y="920" as="sourcePoint" />
            <mxPoint x="380" y="845" as="targetPoint" />
            <Array as="points" />
          </mxGeometry>
        </mxCell>
        <mxCell id="fGFiafbUmP5YM8zGQx3c-35" value="Позначити завдання виконаним" style="ellipse;whiteSpace=wrap;html=1;" vertex="1" parent="1">
          <mxGeometry x="430" y="910" width="140" height="70" as="geometry" />
        </mxCell>
        <mxCell id="fGFiafbUmP5YM8zGQx3c-36" value="Офіційний звіт" style="ellipse;whiteSpace=wrap;html=1;" vertex="1" parent="1">
          <mxGeometry x="250" y="200" width="140" height="70" as="geometry" />
        </mxCell>
        <mxCell id="fGFiafbUmP5YM8zGQx3c-37" value="Скласти звіт за проєктом" style="ellipse;whiteSpace=wrap;html=1;" vertex="1" parent="1">
          <mxGeometry x="100" y="250" width="140" height="70" as="geometry" />
        </mxCell>
        <mxCell id="fGFiafbUmP5YM8zGQx3c-38" value="Скласти звіт за працівником" style="ellipse;whiteSpace=wrap;html=1;" vertex="1" parent="1">
          <mxGeometry x="10" y="350" width="140" height="70" as="geometry" />
        </mxCell>
        <mxCell id="fGFiafbUmP5YM8zGQx3c-39" value="Знайти специфічну людину" style="ellipse;whiteSpace=wrap;html=1;" vertex="1" parent="1">
          <mxGeometry x="610" y="490" width="140" height="70" as="geometry" />
        </mxCell>
        <mxCell id="fGFiafbUmP5YM8zGQx3c-40" value="Представити список працівників" style="ellipse;whiteSpace=wrap;html=1;" vertex="1" parent="1">
          <mxGeometry x="510" y="600" width="140" height="70" as="geometry" />
        </mxCell>
        <mxCell id="fGFiafbUmP5YM8zGQx3c-41" value="Відсортувати за навантаженістю" style="ellipse;whiteSpace=wrap;html=1;" vertex="1" parent="1">
          <mxGeometry x="670" y="570" width="140" height="70" as="geometry" />
        </mxCell>
        <mxCell id="fGFiafbUmP5YM8zGQx3c-42" value="Відсортувати за вміннями" style="ellipse;whiteSpace=wrap;html=1;" vertex="1" parent="1">
          <mxGeometry x="650" y="670" width="140" height="70" as="geometry" />
        </mxCell>
      </root>
    </mxGraphModel>
  </diagram>
</mxfile>
